General

Format                           : MPEG-4
Format profile                   : Base Media
Codec ID                         : isom
File size                        : 111 MiB
Duration                         : 4mn 12s
Overall bit rate                 : 3 689 Kbps
Encoded date                     : UTC 2012-05-17 03:12:18
Tagged date                      : UTC 2012-05-17 03:12:18

Video
ID                               : 1
Format                           : AVC
Format/Info                      : Advanced Video Codec
Format profile                   : High@L3.0
Format settings, CABAC           : Yes
Format settings, ReFrames        : 2 frames
Codec ID                         : avc1
Codec ID/Info                    : Advanced Video Coding
Duration                         : 4mn 12s
Bit rate mode                    : Variable
Bit rate                         : 3 602 Kbps
Maximum bit rate                 : 15.7 Mbps
Width                            : 720 pixels
Height                           : 480 pixels
Display aspect ratio             : 4:3
Original display aspect ratio    : 4:3
Frame rate mode                  : Constant
Frame rate                       : 29.970 fps
Standard                         : NTSC
Color space                      : YUV
Chroma subsampling               : 4:2:0
Bit depth                        : 8 bits
Scan type                        : Progressive
Bits/(Pixel*Frame)               : 0.348
Stream size                      : 109 MiB (98%)


Audio
ID                               : 2
Format                           : AAC
Format/Info                      : Advanced Audio Codec
Format profile                   : LC
Codec ID                         : 40
Duration                         : 4mn 12s
Bit rate mode                    : Variable
Bit rate                         : 62.0 Kbps
Maximum bit rate                 : 77.1 Kbps
Channel(s)                       : 2 channels
Channel positions                : Front: L R
Sampling rate                    : 48.0 KHz
Compression mode                 : Lossy
Stream size                      : 1.87 MiB (2%)